<?xml version="1.0" encoding="iso-8859-1"?>
<!-- Generator: Adobe Illustrator 23.1.1, SVG Export Plug-In . SVG Version: 6.00 Build 0)  -->
<svg version="1.1" id="_x31_-outline-expand" xmlns="http://www.w3.org/2000/svg" xmlns:xlink="http://www.w3.org/1999/xlink"
	 x="0px" y="0px" viewBox="0 0 64 64" style="enable-background:new 0 0 64 64;" xml:space="preserve">
<path style="fill:#62C4C3;" d="M56,57c0,2.209-1.791,4-4,4H34c-2.209,0-4-1.791-4-4V7c0-2.209,1.791-4,4-4h18c2.209,0,4,1.791,4,4
	V57z"/>
<path style="fill:#4F5559;" d="M41,26h20c0.552,0,1,0.447,1,1v2c0,0.553-0.448,1-1,1H41V26z"/>
<path style="fill:#4F5559;" d="M44,28c0,2.762-2.239,5-5,5c-2.761,0-5-2.238-5-5c0-2.762,2.239-5,5-5C41.761,23,44,25.238,44,28"/>
<path style="fill:#4F5559;" d="M42,41c0-1.657-1.343-3-3-3c-1.657,0-3,1.343-3,3c0,0.885,0.391,1.672,1,2.222V47
	c0,1.104,0.896,2,2,2c1.104,0,2-0.896,2-2v-3.778C41.609,42.672,42,41.885,42,41"/>
<path style="fill:#F2DAAE;" d="M18,26v4h-4l-3,3H3c0-3.866,3.134-7,7-7H18z"/>
<rect x="7" y="33" style="fill:#EFBC2E;" width="4" height="4"/>
<path style="fill:#EF941D;" d="M11,37v1.465c0,2.264,0.899,4.434,2.5,6.035s2.5,3.771,2.5,6.035V61H2V50.535
	c0-2.264,0.899-4.434,2.5-6.035S7,40.729,7,38.465V37H11z"/>
<rect x="21" y="27" style="fill:#62C4C3;" width="2" height="2"/>
<rect x="25" y="31" style="fill:#62C4C3;" width="2" height="2"/>
<rect x="25" y="27" style="fill:#62C4C3;" width="2" height="2"/>
<rect x="25" y="23" style="fill:#62C4C3;" width="2" height="2"/>
<path style="fill:#3A4249;" d="M61,25h-4V7c0-2.757-2.243-5-5-5H34c-2.757,0-5,2.243-5,5v50c0,2.757,2.243,5,5,5h18
	c2.757,0,5-2.243,5-5V31h4c1.103,0,2-0.897,2-2v-2C63,25.897,62.103,25,61,25 M55,57c0,1.654-1.346,3-3,3H34c-1.654,0-3-1.346-3-3V7
	c0-1.654,1.346-3,3-3h18c1.654,0,3,1.346,3,3v18H44.188c-1.039-1.79-2.973-3-5.188-3c-3.309,0-6,2.691-6,6s2.691,6,6,6
	c2.215,0,4.149-1.21,5.188-3H55V57z M43,28c0,2.206-1.794,4-4,4c-2.206,0-4-1.794-4-4c0-2.206,1.794-4,4-4
	C41.206,24,43,25.794,43,28 M61,29H44.91c0.055-0.326,0.09-0.658,0.09-1c0-0.342-0.035-0.674-0.09-1H61V29z"/>
<rect x="38" y="7" style="fill:#3A4249;" width="2" height="2"/>
<rect x="42" y="7" style="fill:#3A4249;" width="2" height="2"/>
<rect x="46" y="7" style="fill:#3A4249;" width="2" height="2"/>
<path style="fill:#3A4249;" d="M39,37c-2.206,0-4,1.793-4,4c0,0.965,0.36,1.901,1,2.629V47c0,1.654,1.346,3,3,3s3-1.346,3-3V43.63
	c0.64-0.728,1-1.664,1-2.629C43,38.794,41.205,37,39,37 M40.33,42.479C40.12,42.669,40,42.938,40,43.222V47c0,0.551-0.449,1-1,1
	s-1-0.449-1-1v-3.779c0-0.283-0.12-0.553-0.33-0.742C37.238,42.09,37,41.564,37,41.001c0-1.103,0.897-2,2-2s2,0.897,2,2
	C41,41.564,40.762,42.09,40.33,42.479"/>
<path style="fill:#3A4249;" d="M18,25h-8c-4.411,0-8,3.589-8,8c0,0.553,0.448,1,1,1h3v4.465c0,2.013-0.784,3.904-2.207,5.328
	C1.992,45.594,1,47.988,1,50.535V61c0,0.553,0.448,1,1,1h14c0.552,0,1-0.447,1-1V50.535c0-2.547-0.992-4.941-2.793-6.742
	C12.784,42.369,12,40.478,12,38.465v-5.051l1.187-1.187c0.335,2.012,1.119,3.921,2.324,5.61l0.176,0.245l1.626-1.164l-0.174-0.244
	c-1.204-1.686-1.916-3.631-2.093-5.674H18c0.552,0,1-0.447,1-1v-4C19,25.447,18.552,25,18,25 M8,34h2v2H8V34z M15,54.133L3,55.847
	v-1.98l12-1.714V54.133z M3,60v-2.133l12-1.714V60H3z M12.793,45.207c1.328,1.329,2.09,3.066,2.187,4.928L3,51.847v-1.312
	c0-2.013,0.784-3.904,2.207-5.328C7.008,43.406,8,41.012,8,38.465V38h2v0.465C10,41.012,10.992,43.406,12.793,45.207 M17,29h-3
	c-0.265,0-0.52,0.105-0.707,0.293L10.586,32H4.083c0.478-2.834,2.949-5,5.917-5h7V29z"/>
</svg>
