<?xml version="1.0" encoding="UTF-8" standalone="no"?>
<!-- Created with Inkscape (http://www.inkscape.org/) -->

<svg
   width="64pt"
   height="64pt"
   viewBox="0 0 22.577778 22.577778"
   version="1.1"
   id="svg831"
   inkscape:version="1.1.1 (3bf5ae0d25, 2021-09-20)"
   sodipodi:docname="#1.svg"
   inkscape:export-filename="C:\Users\User\Desktop\Done Januari II\E\15 - Restaurant.png"
   inkscape:export-xdpi="576"
   inkscape:export-ydpi="576"
   xmlns:inkscape="http://www.inkscape.org/namespaces/inkscape"
   xmlns:sodipodi="http://sodipodi.sourceforge.net/DTD/sodipodi-0.dtd"
   xmlns="http://www.w3.org/2000/svg"
   xmlns:svg="http://www.w3.org/2000/svg"
   xmlns:rdf="http://www.w3.org/1999/02/22-rdf-syntax-ns#"
   xmlns:cc="http://creativecommons.org/ns#"
   xmlns:dc="http://purl.org/dc/elements/1.1/">
  <defs
     id="defs825">
    <pattern
       id="EMFhbasepattern"
       patternUnits="userSpaceOnUse"
       width="6"
       height="6"
       x="0"
       y="0" />
    <pattern
       id="EMFhbasepattern-9"
       patternUnits="userSpaceOnUse"
       width="6"
       height="6"
       x="0"
       y="0" />
    <pattern
       id="EMFhbasepattern-0"
       patternUnits="userSpaceOnUse"
       width="6"
       height="6"
       x="0"
       y="0" />
    <pattern
       id="EMFhbasepattern-7"
       patternUnits="userSpaceOnUse"
       width="6"
       height="6"
       x="0"
       y="0" />
    <pattern
       id="EMFhbasepattern-2"
       patternUnits="userSpaceOnUse"
       width="6"
       height="6"
       x="0"
       y="0" />
    <pattern
       id="EMFhbasepattern-98"
       patternUnits="userSpaceOnUse"
       width="6"
       height="6"
       x="0"
       y="0" />
    <pattern
       id="EMFhbasepattern-6"
       patternUnits="userSpaceOnUse"
       width="6"
       height="6"
       x="0"
       y="0" />
    <pattern
       id="EMFhbasepattern-01"
       patternUnits="userSpaceOnUse"
       width="6"
       height="6"
       x="0"
       y="0" />
    <pattern
       id="EMFhbasepattern-07"
       patternUnits="userSpaceOnUse"
       width="6"
       height="6"
       x="0"
       y="0" />
    <pattern
       id="EMFhbasepattern-8"
       patternUnits="userSpaceOnUse"
       width="6"
       height="6"
       x="0"
       y="0" />
    <pattern
       id="EMFhbasepattern-4"
       patternUnits="userSpaceOnUse"
       width="6"
       height="6"
       x="0"
       y="0" />
    <pattern
       id="EMFhbasepattern-40"
       patternUnits="userSpaceOnUse"
       width="6"
       height="6"
       x="0"
       y="0" />
    <pattern
       id="EMFhbasepattern-08"
       patternUnits="userSpaceOnUse"
       width="6"
       height="6"
       x="0"
       y="0" />
    <pattern
       id="EMFhbasepattern-04"
       patternUnits="userSpaceOnUse"
       width="6"
       height="6"
       x="0"
       y="0" />
    <pattern
       id="EMFhbasepattern-014"
       patternUnits="userSpaceOnUse"
       width="6"
       height="6"
       x="0"
       y="0" />
    <pattern
       id="EMFhbasepattern-27"
       patternUnits="userSpaceOnUse"
       width="6"
       height="6"
       x="0"
       y="0" />
    <pattern
       id="EMFhbasepattern-09"
       patternUnits="userSpaceOnUse"
       width="6"
       height="6"
       x="0"
       y="0" />
    <pattern
       id="EMFhbasepattern-5"
       patternUnits="userSpaceOnUse"
       width="6"
       height="6"
       x="0"
       y="0" />
    <pattern
       id="EMFhbasepattern-018"
       patternUnits="userSpaceOnUse"
       width="6"
       height="6"
       x="0"
       y="0" />
  </defs>
  <sodipodi:namedview
     id="base"
     pagecolor="#ffffff"
     bordercolor="#666666"
     borderopacity="1.0"
     inkscape:pageopacity="0.0"
     inkscape:pageshadow="2"
     inkscape:zoom="6.4882571"
     inkscape:cx="42.61545"
     inkscape:cy="42.61545"
     inkscape:document-units="pt"
     inkscape:current-layer="layer1"
     showgrid="false"
     units="pt"
     inkscape:window-width="1920"
     inkscape:window-height="1001"
     inkscape:window-x="-9"
     inkscape:window-y="41"
     inkscape:window-maximized="1"
     inkscape:pagecheckerboard="true"
     inkscape:showpageshadow="false"
     inkscape:object-paths="true"
     inkscape:snap-intersection-paths="true"
     inkscape:snap-smooth-nodes="true"
     inkscape:snap-midpoints="true"
     showguides="true"
     inkscape:snap-bbox="true"
     inkscape:bbox-nodes="true"
     inkscape:snap-nodes="false"
     inkscape:snap-global="true">
    <inkscape:grid
       type="xygrid"
       id="grid1378" />
    <sodipodi:guide
       position="0.97013831,21.607643"
       orientation="78.000048,0"
       id="guide1380"
       inkscape:locked="false" />
    <sodipodi:guide
       position="0.97013831,0.97013129"
       orientation="0,78.000005"
       id="guide1382"
       inkscape:locked="false" />
    <sodipodi:guide
       position="21.607639,0.97013129"
       orientation="-78.000048,0"
       id="guide1384"
       inkscape:locked="false" />
    <sodipodi:guide
       position="21.607639,21.607643"
       orientation="0,-78.000005"
       id="guide1386"
       inkscape:locked="false" />
  </sodipodi:namedview>
  <metadata
     id="metadata828">
    <rdf:RDF>
      <cc:Work
         rdf:about="">
        <dc:format>image/svg+xml</dc:format>
        <dc:type
           rdf:resource="http://purl.org/dc/dcmitype/StillImage" />
      </cc:Work>
    </rdf:RDF>
  </metadata>
  <g
     inkscape:label="Icon"
     inkscape:groupmode="layer"
     id="layer1"
     transform="translate(0,-274.42223)">
    <g
       id="g21647"
       style="display:inline;stroke-width:0.753699"
       transform="matrix(1.3267895,0,0,1.3267895,-80.886893,-97.127437)">
      <g
         id="g14768"
         style="stroke-width:0.753699">
        <path
           style="color:#000000;fill:#a3b9c9;stroke-width:0.753699;stroke-linecap:round;stroke-linejoin:round;-inkscape-stroke:none"
           d="m 63.927734,285.72266 c -0.435245,0 -0.792971,0.35968 -0.792968,0.79492 v 0.26367 c 0,0.58137 0.477228,1.05859 1.058593,1.05859 h 0.521485 a 0.26460996,0.26460996 0 0 0 0.261718,-0.30664 l -0.257812,-1.58789 a 0.26460996,0.26460996 0 0 0 -0.261719,-0.22265 z"
           id="path51262" />
        <path
           style="color:#000000;fill:#a3b9c9;stroke-width:0.753699;stroke-linecap:round;stroke-linejoin:round;-inkscape-stroke:none"
           d="m 74.488281,285.72266 a 0.26460996,0.26460996 0 0 0 -0.261719,0.22265 l -0.257812,1.58789 a 0.26460996,0.26460996 0 0 0 0.261719,0.30664 h 0.521484 c 0.581365,0 1.058594,-0.47722 1.058594,-1.05859 v -0.26367 c 3e-6,-0.43524 -0.357724,-0.79492 -0.792969,-0.79492 z"
           id="path50409" />
        <path
           style="color:#000000;fill:#8ed1f7;stroke-width:0.753699;stroke-linecap:round;stroke-linejoin:round;-inkscape-stroke:none"
           d="m 64.722656,283.60742 a 0.26460945,0.26460945 0 0 0 -0.265625,0.26367 v 2.11719 a 0.26460945,0.26460945 0 0 0 0.265625,0.26367 h 2.115235 a 0.26460945,0.26460945 0 0 0 0.265625,-0.26367 v -2.11719 a 0.26460945,0.26460945 0 0 0 -0.265625,-0.26367 z"
           id="path51989" />
        <path
           style="color:#000000;fill:#70c2ef;stroke-width:0.753699;stroke-linecap:round;stroke-linejoin:round;-inkscape-stroke:none"
           d="m 66.837891,284.66602 a 0.26460945,0.26460945 0 0 0 -0.263672,0.26367 v 1.23437 a 0.26460945,0.26460945 0 0 0 0.255859,0.26367 l 2.117188,0.0645 a 0.26460945,0.26460945 0 0 0 0.271484,-0.26563 v -1.29687 a 0.26460945,0.26460945 0 0 0 -0.263672,-0.26367 z"
           id="path52373" />
        <path
           id="path63540"
           style="color:#000000;fill:#57b0d9;fill-opacity:1;stroke-width:0.753699;stroke-linecap:round;stroke-linejoin:round;-inkscape-stroke:none"
           d="m 69.218517,284.92989 c -2.95e-4,-0.14552 -0.118033,-0.26349 -0.263548,-0.26407 l -2.117188,4e-5 c -0.145515,5.8e-4 -0.263254,0.11855 -0.263549,0.26407 v 0.52917 c 5.81e-4,0.14531 0.118236,0.26297 0.263549,0.26355 h 2.117186 c 0.108708,-1.4e-4 0.20627,-0.0668 0.24598,-0.16795 z"
           sodipodi:nodetypes="ccccccccc" />
        <path
           style="color:#000000;fill:#8ed1f7;stroke-width:0.753699;stroke-linecap:round;stroke-linejoin:round;-inkscape-stroke:none"
           d="m 66.837891,282.54883 a 0.26460945,0.26460945 0 0 0 -0.263672,0.26367 v 2.11719 a 0.26460945,0.26460945 0 0 0 0.263672,0.26367 h 2.117187 a 0.26460945,0.26460945 0 0 0 0.246094,-0.16797 l 0.207031,-0.5293 a 0.26460945,0.26460945 0 0 0 0.01758,-0.0957 v -1.58789 a 0.26460945,0.26460945 0 0 0 -0.265625,-0.26367 z"
           id="path52565" />
        <path
           id="path68300"
           style="color:#000000;fill:#67c3e5;fill-opacity:1;stroke-width:0.753699;stroke-linecap:round;stroke-linejoin:round;-inkscape-stroke:none"
           d="m 67.993786,282.54868 1.431951,1.43299 v -1.16892 a 0.26460945,0.26460945 0 0 0 -0.265615,-0.26407 z" />
        <path
           id="path66577"
           style="color:#000000;fill:#67c3e5;fill-opacity:1;stroke-width:0.753699;stroke-linecap:round;stroke-linejoin:round;-inkscape-stroke:none"
           d="m 69.425733,284.40025 v -1.5875 c -2.97e-4,-0.14632 -0.119293,-0.26463 -0.265615,-0.26407 h -2.322337 c -0.145515,5.8e-4 -0.263254,0.11855 -0.263549,0.26407 v 0.2651 h 2.056723 c 0.146318,-5.6e-4 0.265312,0.11774 0.265615,0.26406 v 1.5875 z"
           sodipodi:nodetypes="cccccccccc" />
        <path
           id="path62671"
           style="color:#000000;fill:#67c3e5;fill-opacity:1;stroke-width:0.753699;stroke-linecap:round;stroke-linejoin:round;-inkscape-stroke:none"
           d="m 64.722665,283.60753 a 0.26460945,0.26460945 0 0 0 -0.265615,0.26355 v 0.26562 h 1.851565 a 0.26460945,0.26460945 0 0 1 0.265617,0.26355 v 1.85156 h 0.263549 a 0.26460945,0.26460945 0 0 0 0.265618,-0.26355 v -2.11718 a 0.26460945,0.26460945 0 0 0 -0.265618,-0.26355 z" />
        <path
           style="color:#000000;fill:#70c2ef;stroke-width:0.753699;stroke-linecap:round;stroke-linejoin:round;-inkscape-stroke:none"
           d="m 68.955078,284.13672 c -0.145408,5.1e-4 -0.263157,0.11826 -0.263672,0.26367 v 1.82422 c 5.15e-4,0.14541 0.118264,0.26316 0.263672,0.26367 h 1.958266 c 0.145407,-5.1e-4 0.263156,-0.11826 0.263671,-0.26367 v -1.82422 c -5.15e-4,-0.14541 -0.118264,-0.26316 -0.263671,-0.26367 z"
           id="path52181"
           sodipodi:nodetypes="ccccccccc" />
        <path
           style="color:#000000;fill:#70c2ef;stroke-width:0.753699;stroke-linecap:round;stroke-linejoin:round;-inkscape-stroke:none"
           d="m 70.183594,280.8418 a 0.26460945,0.26460945 0 0 0 -0.371094,0.004 l -1.308594,1.31055 a 0.26460945,0.26460945 0 0 0 0,0.37305 l 2.056641,2.05859 a 0.26460945,0.26460945 0 0 0 0.36914,0.004 l 1.382813,-1.3086 a 0.26460945,0.26460945 0 0 0 0.002,-0.38281 z"
           id="path52757" />
        <path
           style="color:#000000;fill:#70c2ef;stroke-width:0.753699;stroke-linecap:round;stroke-linejoin:round;-inkscape-stroke:none"
           d="m 71.072266,284.66602 a 0.26460945,0.26460945 0 0 0 -0.265625,0.26367 v 1.28711 a 0.26460945,0.26460945 0 0 0 0.279296,0.26367 l 2.322266,-0.13086 a 0.26460945,0.26460945 0 0 0 0.25,-0.26367 v -1.15625 a 0.26460945,0.26460945 0 0 0 -0.263672,-0.26367 z"
           id="path53141" />
        <path
           id="path81647"
           style="color:#000000;fill:#57b0d9;fill-opacity:1;stroke-width:2.84863;stroke-linecap:round;stroke-linejoin:round;-inkscape-stroke:none"
           d="m 270.48438,17.382812 v 2.275391 a 1.0000987,1.0000987 0 0 0 1.0039,0.996094 h 6.9043 v -2.273438 a 1.0000987,1.0000987 0 0 0 -0.9961,-0.998047 z"
           transform="matrix(0.26458334,0,0,0.26458334,0,280.06666)" />
        <path
           id="path73780"
           style="color:#000000;fill:#57b0d9;fill-opacity:1;stroke-width:0.753699;stroke-linecap:round;stroke-linejoin:round;-inkscape-stroke:none"
           d="m 68.954967,284.1367 c -0.145314,5.8e-4 -0.262971,0.11824 -0.263552,0.26355 v 0.26561 h 1.851568 c 0.145313,5.8e-4 0.262967,0.11824 0.263548,0.26355 v 1.55908 h 0.265618 c 0.145515,-5.8e-4 0.08447,-0.11855 0.08476,-0.26407 v -1.82417 c -5.81e-4,-0.14531 -0.118236,-0.26297 -0.263549,-0.26355 z"
           sodipodi:nodetypes="ccccccccccc" />
        <path
           id="path76244"
           style="color:#000000;fill:#57b0d9;fill-opacity:1;stroke-width:0.753699;stroke-linecap:round;stroke-linejoin:round;-inkscape-stroke:none"
           d="m 69.99728,280.76791 a 0.26460945,0.26460945 0 0 0 -0.185002,0.078 l -0.524516,0.52503 a 0.26460945,0.26460945 0 0 1 0.366903,0 l 2.130618,2.05879 a 0.26460945,0.26460945 0 0 1 0.0584,0.29714 l 0.468704,-0.44338 a 0.26460945,0.26460945 0 0 0 0.0021,-0.38292 l -2.130618,-2.05879 a 0.26460945,0.26460945 0 0 0 -0.186552,-0.0739 z" />
        <path
           id="path77967"
           style="color:#000000;fill:#57b0d9;fill-opacity:1;stroke-width:0.753699;stroke-linecap:round;stroke-linejoin:round;-inkscape-stroke:none"
           d="m 71.336217,282.54868 v 1.6583 l 0.976167,-0.92346 c 0.109853,-0.10365 0.110809,-0.27807 0.0021,-0.38292 l -0.639236,-0.61754 z"
           sodipodi:nodetypes="cccccc" />
        <path
           style="color:#000000;fill:#8ed1f7;stroke-width:0.753699;stroke-linecap:round;stroke-linejoin:round;-inkscape-stroke:none"
           d="m 72.130859,282.2832 a 0.26460945,0.26460945 0 0 0 -0.265625,0.26563 v 2.38086 a 0.26460945,0.26460945 0 0 0 0.265625,0.26367 h 2.115235 a 0.26460945,0.26460945 0 0 0 0.265625,-0.26367 v -2.38086 a 0.26460945,0.26460945 0 0 0 -0.265625,-0.26563 z"
           id="path52949" />
        <path
           id="path53428"
           style="color:#000000;fill:#8aa9b8;fill-opacity:1;stroke-width:2.84863;stroke-linecap:round;stroke-linejoin:round;-inkscape-stroke:none"
           d="m 243.61719,21.376953 h -2 c -1.3409,0 -2.48725,0.903999 -2.86524,2.128906 0.67442,-0.181798 1.29344,-0.128906 2.01172,-0.128906 l 0.95703,5.898438 c 0.93376,0.164219 1.88436,0.103515 2.8711,0.103515 z"
           transform="matrix(0.26458334,0,0,0.26458334,0,280.06666)"
           sodipodi:nodetypes="csccccc" />
        <path
           style="color:#000000;fill:#c8dae5;stroke-width:0.753699;stroke-linecap:round;stroke-linejoin:round;-inkscape-stroke:none"
           d="m 64.484375,285.72461 c -0.174062,-0.0186 -0.317854,0.13398 -0.289063,0.30664 l 1.503907,9.27344 c 0.06794,0.41895 0.402699,0.75312 1.623316,0.90804 1.220618,0.15492 3.22527,0.13947 4.373111,-0.008 1.147842,-0.14721 1.480649,-0.48134 1.548589,-0.9003 l 1.503906,-9.27344 c 0.02851,-0.17178 -0.113824,-0.3238 -0.28711,-0.30664 -3.408957,0.3477 -6.828707,0.32776 -9.976562,0 z"
           id="path50601"
           sodipodi:nodetypes="scccccccss" />
        <path
           id="path58573"
           style="color:#000000;fill:#8aa9b8;fill-opacity:1;stroke-width:0.753699;stroke-linecap:round;stroke-linejoin:round;-inkscape-stroke:none"
           d="m 74.230585,287.84073 h 0.521414 c 0.08102,0 0.160195,-0.009 0.236162,-0.0269 l 0.248047,-1.53014 c 0.291875,0.085 0.516474,0.33562 0.564824,0.64079 0.0064,-0.0466 0.0093,-0.0938 0.0093,-0.14211 v -0.26407 c 8e-6,-0.43524 -0.35747,-0.79478 -0.792715,-0.79478 l -0.529139,-8.7e-4 z"
           sodipodi:nodetypes="cscccssccc" />
        <path
           id="path54186"
           style="color:#000000;fill:#adc2cc;fill-opacity:1;stroke-width:0.753699;stroke-linecap:round;stroke-linejoin:round;-inkscape-stroke:none"
           d="m 74.498297,285.72368 c -0.01241,-5.4e-4 -0.02485,-2.1e-4 -0.03721,10e-4 -3.408956,0.3477 -6.828796,0.32776 -9.976652,0 -0.173888,-0.0184 -0.317481,0.13394 -0.28887,0.30644 l 0.04031,0.25012 c 2.574335,0.3053 4.862251,0.37705 7.086716,0.25919 1.603636,-0.085 2.69365,1.02706 2.443868,2.61373 l -1.051516,6.67946 c -0.01222,0.0754 -0.03313,0.14829 -0.06149,0.21704 0.308793,-0.12596 0.535893,-0.40846 0.590662,-0.74621 l 1.503785,-9.27334 c 0.02586,-0.15661 -0.09102,-0.30059 -0.249597,-0.30747 z"
           sodipodi:nodetypes="cccccccccccc" />
        <path
           id="path51067"
           style="color:#000000;fill:#a3b9c9;stroke-width:2.84863;stroke-linecap:round;stroke-linejoin:round;-inkscape-stroke:none"
           d="m 282.06641,25.285156 c -12.57014,1.310981 -25.54336,1.457116 -38.99024,0.0098 l 0.99219,6.128906 c 12.86342,1.687809 24.87871,1.677212 37.00195,0.0039 z"
           transform="matrix(0.26458334,0,0,0.26458334,0,280.06666)"
           sodipodi:nodetypes="ccccc" />
        <path
           id="path60870"
           style="color:#000000;fill:#91adbd;fill-opacity:1;stroke-width:2.84863;stroke-linecap:round;stroke-linejoin:round;-inkscape-stroke:none"
           d="m 282.06641,25.285156 -1.29688,0.166016 c -1.77895,0.174921 -3.55872,0.320697 -5.33594,0.443359 1.92117,1.253616 3.17452,3.255896 3.44727,5.736328 0.79865,-0.06418 1.39269,-0.121822 2.18945,-0.203125 z"
           transform="matrix(0.26458334,0,0,0.26458334,0,280.06666)"
           sodipodi:nodetypes="cccccc" />
        <path
           style="color:#000000;fill:#a3b9c9;stroke-width:0.753699;stroke-linecap:round;stroke-linejoin:round;-inkscape-stroke:none"
           d="m 63.398437,286.51758 c -0.145413,5e-4 -0.26317,0.11826 -0.263671,0.26367 0,1.40648 0.729724,2.67407 1.880859,3.57617 1.151135,0.9021 2.726362,1.45117 4.457031,1.45117 1.730669,0 3.303944,-0.54907 4.455078,-1.45117 1.151135,-0.9021 1.882813,-2.16969 1.882813,-3.57617 -5.01e-4,-0.14541 -0.118258,-0.26317 -0.263672,-0.26367 -0.146176,-5.8e-4 -0.265121,0.11749 -0.265625,0.26367 0,1.22377 -0.631297,2.33857 -1.679688,3.16016 -1.04839,0.82158 -2.510538,1.33789 -4.128906,1.33789 -1.618367,0 -3.080516,-0.51631 -4.128906,-1.33789 -1.04839,-0.82159 -1.679687,-1.93639 -1.679688,-3.16016 -5.04e-4,-0.14618 -0.119449,-0.26425 -0.265625,-0.26367 z"
           id="path26459"
           sodipodi:nodetypes="ccssscccssscc" />
        <path
           style="color:#000000;fill:#a3b9c9;stroke-width:0.753699;stroke-linecap:round;stroke-linejoin:round;-inkscape-stroke:none"
           d="m 66.289062,292.41406 c 0.141136,0.72492 0.205967,1.4043 0.335938,2.09375 0.06644,0.35243 0.350892,0.60256 0.703125,0.63477 0.217659,0.0199 0.435387,0.037 0.652344,0.0508 0.146276,0.01 0.272398,-0.10173 0.28125,-0.24805 0.0095,-0.14627 -0.101731,-0.2724 -0.248047,-0.28125 -0.212095,-0.0134 -0.424045,-0.0294 -0.636719,-0.0488 -0.07795,-0.007 -0.219264,-0.13528 -0.232422,-0.20507 -0.123909,-0.65729 -0.188759,-1.3417 -0.335937,-2.09766 -0.028,-0.1435 -0.167072,-0.23708 -0.310557,-0.20906 -0.143484,0.028 -0.237075,0.1671 -0.208975,0.31057 z m 2.677735,2.29102 c -0.146193,-0.004 -0.267792,0.11161 -0.271485,0.25781 -0.0039,0.14619 0.111616,0.26779 0.257813,0.27148 0.326222,0.008 0.669137,0.005 0.962891,0.002 0.146181,-0.002 0.263382,-0.1214 0.261718,-0.26758 -0.0016,-0.14618 -0.121398,-0.26338 -0.267578,-0.26172 z"
           id="path1183"
           sodipodi:nodetypes="cssccccccccccccccc" />
        <path
           id="path79690"
           style="color:#000000;fill:#67c3e5;fill-opacity:1;stroke-width:0.753699;stroke-linecap:round;stroke-linejoin:round;-inkscape-stroke:none"
           d="m 72.130999,282.28306 a 0.26460945,0.26460945 0 0 0 -0.265616,0.26562 v 0.26355 h 1.851565 a 0.26460945,0.26460945 0 0 1 0.265618,0.26562 v 2.11563 h 0.263549 a 0.26460945,0.26460945 0 0 0 0.265618,-0.26355 v -2.38125 a 0.26460945,0.26460945 0 0 0 -0.265618,-0.26562 z" />
      </g>
      <path
         id="rect24525"
         style="color:#000000;display:inline;fill:#000000;stroke-width:0.753699;stroke-linecap:round;stroke-linejoin:round;-inkscape-stroke:none"
         d="m 63.135186,286.80837 c 0.0089,1.33938 0.679162,2.55079 1.744081,3.43855 l 0.820105,5.05757 c 0.07779,0.41216 0.352306,0.74475 0.829974,0.80874 2.01381,0.25437 4.018722,0.23892 5.886979,0 0.431282,-0.0611 0.783,-0.36009 0.827905,-0.80874 l 0.820105,-5.05809 c 1.057643,-0.88176 1.727431,-2.08267 1.745115,-3.41116 0.0024,-0.10364 0.0011,-0.21102 0.0011,-0.31781 5e-6,-0.43524 -0.357471,-0.79478 -0.792716,-0.79478 -0.455779,-0.0286 -0.952426,0.0422 -1.359606,0.077 v -0.60616 h 0.588076 c 0.146121,5.5e-4 0.265033,-0.11743 0.265618,-0.26355 v -2.38125 c 5.29e-4,-0.14693 -0.11869,-0.26618 -0.265618,-0.26562 h -2.115116 c -0.118986,-1.4e-4 -0.223436,0.0792 -0.255281,0.19379 l -1.691886,-1.63504 c -0.05007,-0.0482 -0.117078,-0.0747 -0.186552,-0.0739 h -1.49e-4 c -0.06952,7e-4 -0.13598,0.0287 -0.185002,0.078 l -1.308446,1.31051 c -0.148125,0.16121 -0.105291,0.29013 0.01913,0.39223 h -1.685171 c -0.145513,5.8e-4 -0.263252,0.11855 -0.263549,0.26407 v 0.79478 h -1.851567 c -0.146119,-5.6e-4 -0.265031,0.11743 -0.265615,0.26355 v 1.85157 h -0.529167 c -0.435245,0 -0.793237,0.35954 -0.793234,0.79478 z m 6.868814,-5.40432 1.742014,1.68568 -0.992188,0.94155 -1.689303,-1.68776 z m 2.390553,1.4087 h 1.588016 v 1.85311 h -1.588016 c 2.56e-4,-0.61785 0,-1.2376 0,-1.85311 z m -5.291151,0.26561 h 1.793171 v 1.06609 c -0.119343,0.0275 -0.204208,0.13333 -0.205155,0.2558 v 0.26561 h -1.588016 z m 2.322338,0.37362 0.684196,0.68472 H 69.42574 Z m 1.862936,0.79995 0.57671,-0.5457 v 0.95963 h -0.57671 z m -6.302457,-0.11523 h 1.588016 v 0.79323 0.96325 c -0.53536,-0.0314 -1.065316,-0.0708 -1.588016,-0.11937 z m 4.232299,0.52916 h 1.588016 v 1.29346 c -0.532022,0.0145 -1.061577,0.02 -1.588016,0.0176 z m -2.115116,0.52762 h 1.588016 v 0.77876 c -0.533773,-0.008 -1.063107,-0.0256 -1.588016,-0.0506 z m 4.232299,0 h 1.793174 v 0.64854 c -0.599073,0.0445 -1.197248,0.0777 -1.793174,0.10025 z m -7.407815,1.05833 h 0.302823 l 0.171567,1.05885 c -0.508963,0 -0.724895,-0.0738 -0.738458,-0.52916 v -0.26407 c 0,-0.14926 0.114808,-0.26562 0.264068,-0.26562 z m 10.784872,0 h 0.30489 c 0.149259,0 0.263551,0.11636 0.263549,0.26562 v 0.26407 c -0.04366,0.40371 -0.210778,0.52916 -0.740006,0.52916 z m -0.628391,0.56793 c -3.150407,0.29635 -6.302777,0.28059 -9.223727,5.3e-4 l -0.0894,-0.55089 c 3.145727,0.31548 6.324357,0.35254 9.402527,0 z m -0.174146,1.07591 c -3.034049,0.27438 -6.053998,0.25904 -8.875427,-0.002 l -0.08635,-0.5333 c 2.873647,0.26682 5.958308,0.28142 9.048027,-5.3e-4 z M 63.803862,287.7649 c 0.238467,0.0871 0.436079,0.0995 0.684713,0.0749 l 0.250629,1.54513 c -0.44337,-0.48126 -0.764889,-1.02954 -0.935342,-1.62006 z m 11.337809,0 c -0.170794,0.59178 -0.493117,1.14116 -0.937927,1.62316 l 0.25063,-1.54823 c 0.236135,0.0232 0.484864,-0.0229 0.687297,-0.0749 z m -1.318784,0.66818 -0.248047,1.52858 c -1.046464,0.80962 -2.497256,1.31775 -4.102073,1.31775 -1.604939,0 -3.05611,-0.50802 -4.102592,-1.31775 l -0.248047,-1.52807 c 2.773251,0.2478 5.727454,0.26032 8.700759,-5.3e-4 z m -0.366384,2.25826 -0.733806,4.52737 c -0.02442,0.15054 -0.226428,0.34984 -0.373102,0.36897 -1.823797,0.23324 -3.785881,0.24855 -5.753656,0 -0.146675,-0.0191 -0.348689,-0.21843 -0.373102,-0.36897 l -0.734325,-4.52582 c 1.093028,0.70098 2.479882,1.11569 3.984255,1.11569 1.505199,0 2.890816,-0.41556 3.983736,-1.11724 z m -6.958232,1.41231 c -0.143635,0.0279 -0.237398,0.16699 -0.209288,0.31058 0.141134,0.72492 0.205925,1.40396 0.335896,2.09341 0.06644,0.35243 0.351084,0.60289 0.703315,0.6351 0.21766,0.0199 0.4352,0.0369 0.652156,0.0507 0.146225,0.009 0.272264,-0.10179 0.28112,-0.24805 0.0094,-0.14623 -0.101785,-0.27227 -0.248047,-0.28112 -0.212095,-0.0134 -0.423979,-0.0297 -0.636654,-0.0491 -0.07795,-0.007 -0.218868,-0.13537 -0.232026,-0.20516 -0.12391,-0.65729 -0.188719,-1.34158 -0.335897,-2.09755 -0.04626,-0.18383 -0.179025,-0.22983 -0.310575,-0.20877 z m 2.468583,2.60139 c -0.146142,-0.004 -0.267636,0.11172 -0.271301,0.25787 -0.0038,0.14595 0.111408,0.26736 0.25735,0.2713 0.326221,0.008 0.669494,0.005 0.963247,0.002 0.14613,-0.002 0.263205,-0.12155 0.261483,-0.26768 -0.0016,-0.14613 -0.121555,-0.2632 -0.267685,-0.26148 -0.293184,0.003 -0.629536,0.006 -0.943094,-0.002 z"
         sodipodi:nodetypes="ccccccccccccccccccccccccccccccsccccccccccccccccccccccccccccccccccccccccccccscccsccccsccssccccccccccccccccccsccccccccccccscccccccccscccccccccccc" />
    </g>
  </g>
</svg>
